<svg fill="none" height="40" viewBox="0 0 40 40" width="40" xmlns="http://www.w3.org/2000/svg"><rect fill="#fff" height="22.6406" rx="8" width="24.2609" x="8.26172" y="8.58765"/><g fill="#0052e1"><path d="m20.001 40c-.6547-.0001-1.2981-.1705-1.8667-.4943l-14.2686-8.1541c-.56456-.3229-1.03411-.7882-1.36157-1.3492-.32745-.561-.50131-1.198-.50413-1.8472v-16.3082c.00246-.6496.17626-1.2872.50393-1.84862.32767-.56143.79767-1.02695 1.36279-1.3498l14.26758-8.154082c.568-.324041 1.2109-.494498 1.8652-.494498s1.2972.170457 1.8652.494498l14.2706 8.154082c.5648.32287 1.0344.7883 1.3617 1.34955.3273.56127.5008 1.19857.503 1.84787v16.3082c-.0026.6496-.1764 1.2871-.5041 1.8485-.3276.5614-.7976 1.027-1.3626 1.3499l-14.2686 8.1541c-.5676.3234-1.21.4934-1.8637.4933zm-.1022-38.92656c-.6176.0005-1.2244.16176-1.7604.46784l-13.46553 7.69032c-.53294.30455-.97611.74371-1.28496 1.2733-.30885.5296-.4725 1.131-.47447 1.7437v15.3908c.00226.6125.16603 1.2137.47486 1.7431s.75185.9684 1.28457 1.2729l13.46243 7.6924c.5356.3056 1.1419.4664 1.7589.4664.6171 0 1.2234-.1608 1.759-.4664l13.4634-7.6924c.5328-.305.9758-.7444 1.2846-1.2741s.4726-1.1311.4749-1.7439v-15.3878c-.002-.6125-.1656-1.2138-.4745-1.7432-.3088-.52949-.752-.96845-1.285-1.27277l-13.4634-7.69337c-.5354-.30582-1.1415-.46675-1.7584-.46682z"/><path d="m19.9039 37.5969c-.5738-.0001-1.1375-.1505-1.6347-.4362l-12.49184-7.196c-.49635-.2864-.90859-.6979-1.19548-1.1932s-.43838-1.0571-.4393-1.6291v-14.392c.00116-.5721.15273-1.1339.43959-1.6293s.69897-.9071 1.19519-1.194l12.49184-7.19496c.497-.28627 1.0608-.43697 1.6347-.43697.574 0 1.1378.1507 1.6348.43697l12.4949 7.19598c.4965.28598.909.69718 1.1959 1.19238s.4383 1.057.4389 1.6289v14.392c-.0017.5719-.1535 1.1334-.4403 1.6285-.2868.4952-.6987.9068-1.1945 1.1938l-12.4959 7.196c-.4967.2862-1.0601.437-1.6338.4372zm5.8883-18.4486v10.0795h2.7066v-16.2388l-16.2783 16.2388h4.0348l9.5349-10.0774zm-14.8653-8.7401v16.2378l16.2784-16.2378h-4.0349l-9.5369 10.0784v-10.0784z"/></g></svg>